<svg width="33" height="32" viewBox="0 0 33 32" fill="none" xmlns="http://www.w3.org/2000/svg">
<g clip-path="url(#clip0_115_259)">
<path fill-rule="evenodd" clip-rule="evenodd" d="M16.6665 0C7.82997 0 0.666504 7.16347 0.666504 16C0.666504 24.8365 7.82997 32 16.6665 32C25.503 32 32.6665 24.8365 32.6665 16C32.6665 7.16347 25.503 0 16.6665 0ZM8.34757 13.2519H11.9735V24.1464H8.34757V13.2519ZM12.2124 9.8818C12.1888 8.8136 11.425 8 10.1845 8C8.9441 8 8.13317 8.8136 8.13317 9.8818C8.13317 10.9279 8.92017 11.7649 10.1374 11.7649H10.1606C11.425 11.7649 12.2124 10.9279 12.2124 9.8818ZM20.8752 12.9961C23.2613 12.9961 25.0501 14.5535 25.0501 17.8998L25.05 24.1464H21.4242V18.3178C21.4242 16.8538 20.8994 15.8548 19.5868 15.8548C18.5851 15.8548 17.9884 16.5283 17.7264 17.1788C17.6305 17.4119 17.607 17.7367 17.607 18.0623V24.1467H13.9806C13.9806 24.1467 14.0284 14.2745 13.9806 13.2522H17.607V14.7953C18.0882 14.0535 18.9501 12.9961 20.8752 12.9961Z" fill="#434343"/>
</g>
<defs>
<clipPath id="clip0_115_259">
<rect width="32" height="32" fill="white" transform="translate(0.666504)"/>
</clipPath>
</defs>
</svg>
