<svg width="48" height="48" viewBox="0 0 48 48" fill="none" xmlns="http://www.w3.org/2000/svg">
<rect width="48" height="48" rx="24" fill="#FDD3D0"/>
<path d="M15.3335 32.6666V28.6666C15.3309 27.2959 15.6549 25.9442 16.2786 24.7236C16.9023 23.5029 17.8078 22.4484 18.9202 21.6473C18.17 20.7686 17.6627 19.7091 17.4484 18.5738C17.2342 17.4385 17.3205 16.2669 17.6988 15.1753C16.7282 14.6575 15.5968 14.5287 14.5345 14.8151C13.4723 15.1015 12.559 15.7816 11.9802 16.7172C11.4014 17.6528 11.2006 18.7736 11.4185 19.852C11.6365 20.9303 12.2568 21.8853 13.1535 22.5226C12.02 23.0139 11.0547 23.8255 10.3761 24.8577C9.69748 25.89 9.33512 27.098 9.3335 28.3333V31.3333C9.33455 32.217 9.68608 33.0643 10.311 33.6892C10.9359 34.3141 11.7831 34.6656 12.6668 34.6666H15.7902C15.4905 34.0425 15.3344 33.3591 15.3335 32.6666Z" fill="#A21C21"/>
<path d="M34.8467 22.5226C35.7434 21.8853 36.3638 20.9303 36.5817 19.852C36.7997 18.7736 36.5988 17.6528 36.02 16.7172C35.4412 15.7816 34.5279 15.1015 33.4657 14.8151C32.4035 14.5287 31.2721 14.6575 30.3014 15.1753C30.6797 16.2669 30.7661 17.4385 30.5518 18.5738C30.3376 19.7091 29.8302 20.7686 29.0801 21.6473C30.1924 22.4484 31.0979 23.5029 31.7217 24.7236C32.3454 25.9442 32.6693 27.2959 32.6667 28.6666V32.6666C32.6658 33.3591 32.5098 34.0425 32.2101 34.6666H35.3334C36.2171 34.6656 37.0644 34.3141 37.6893 33.6892C38.3142 33.0643 38.6657 32.217 38.6667 31.3333V28.3333C38.6651 27.098 38.3028 25.89 37.6241 24.8577C36.9455 23.8255 35.9802 23.0139 34.8467 22.5226Z" fill="#A21C21"/>
<path d="M26.7712 21.8813C27.7654 21.2767 28.5345 20.3634 28.9614 19.2809C29.3882 18.1984 29.4493 17.006 29.1354 15.8855C28.8214 14.765 28.1496 13.778 27.2224 13.0749C26.2952 12.3718 25.1635 11.9912 23.9998 11.9912C22.8362 11.9912 21.7045 12.3718 20.7773 13.0749C19.8501 13.778 19.1783 14.765 18.8643 15.8855C18.5503 17.006 18.6114 18.1984 19.0383 19.2809C19.4651 20.3634 20.2343 21.2767 21.2285 21.8813C19.8809 22.4324 18.7277 23.3718 17.9153 24.58C17.103 25.7882 16.6683 27.2107 16.6665 28.6666V32.6666C16.6676 33.5504 17.0191 34.3976 17.644 35.0225C18.2689 35.6474 19.1161 35.9989 19.9998 36H27.9998C28.8836 35.9989 29.7308 35.6474 30.3557 35.0225C30.9806 34.3976 31.3321 33.5504 31.3332 32.6666V28.6666C31.3314 27.2107 30.8967 25.7882 30.0843 24.58C29.272 23.3718 28.1187 22.4324 26.7712 21.8813Z" fill="#A21C21"/>
</svg>
