<svg width="48" height="48" viewBox="0 0 48 48" fill="none" xmlns="http://www.w3.org/2000/svg">
<rect width="48" height="48" rx="24" fill="#FDD3D0"/>
<path fill-rule="evenodd" clip-rule="evenodd" d="M29 33.9495V36H31.0026C32.1057 36 33 35.1091 33 34.0026V17H28.0059C26.8981 17 26 16.1133 26 15.0019V9H16.0085C14.8993 9 14 9.89834 14 11.0073V33.9927C14 35.1013 14.8909 36 15.9974 36H24V33.9495C23.3814 33.3182 23 32.4537 23 31.5C23 29.567 24.567 28 26.5 28C28.433 28 30 29.567 30 31.5C30 32.4537 29.6186 33.3182 29 33.9495ZM25 34.6632V39.6L26.5 38.1L28 39.6V34.6632C27.5454 34.8792 27.0368 35 26.5 35C25.9632 35 25.4546 34.8792 25 34.6632ZM27 9V14.9971C27 15.551 27.451 16 27.9908 16H33L27 9ZM17 16V17H24V16H17ZM17 13V14H24V13H17ZM17 19V20H30V19H17ZM17 22V23H30V22H17ZM17 25V26H30V25H17ZM26.5 34C27.8807 34 29 32.8807 29 31.5C29 30.1193 27.8807 29 26.5 29C25.1193 29 24 30.1193 24 31.5C24 32.8807 25.1193 34 26.5 34Z" fill="#A21C21"/>
</svg>
