<svg width="106" height="92" viewBox="0 0 106 92" fill="none" xmlns="http://www.w3.org/2000/svg">
<rect x="1.55554" y="1" width="103.111" height="90" rx="8" fill="white"/>
<rect x="1.05554" y="0.5" width="104.111" height="91" rx="8.5" stroke="black" stroke-opacity="0.24"/>
<g clip-path="url(#clip0_305_615)">
<path d="M27.5803 58.8442H13.1111V60.9229H27.5803V58.8442Z" fill="#1F70C1"/>
<path d="M27.5803 54.8748H13.1111V56.9534H27.5803V54.8748Z" fill="#1F70C1"/>
<path d="M23.4454 50.9089H17.239V52.9876H23.4454V50.9089Z" fill="#1F70C1"/>
<path d="M23.4454 46.9434H17.239V49.022H23.4454V46.9434Z" fill="#1F70C1"/>
<path d="M23.4454 42.9775H17.239V45.0562H23.4454V42.9775Z" fill="#1F70C1"/>
<path d="M23.4454 39.0051H17.239V41.0838H23.4454V39.0051Z" fill="#1F70C1"/>
<path d="M27.5803 35.0391H13.1111V37.1177H27.5803V35.0391Z" fill="#1F70C1"/>
<path d="M27.5803 31.0735H13.1111V33.1521H27.5803V31.0735Z" fill="#1F70C1"/>
<path d="M29.6447 60.9042L45.0575 60.9263C47.1214 60.9263 48.9863 60.1303 50.3794 58.8477H29.6449L29.6447 60.9042Z" fill="#1F70C1"/>
<path d="M29.6447 56.9534H51.8981C52.2739 56.3122 52.5541 55.6119 52.7237 54.8748H29.645L29.6447 56.9534Z" fill="#1F70C1"/>
<path d="M39.9784 50.9089H33.7794V52.9876H39.9784V50.9089Z" fill="#1F70C1"/>
<path d="M46.1849 50.9089V52.9876H52.9516C52.9516 52.2726 52.8557 51.5724 52.6715 50.9089H46.1849Z" fill="#1F70C1"/>
<path d="M50.1656 46.9434H33.7794V49.022H51.8973C51.4255 48.2259 50.8432 47.5257 50.1651 46.9434H50.1656Z" fill="#1F70C1"/>
<path d="M33.7794 42.9775V45.0562H50.1656C50.8585 44.4739 51.4408 43.7736 51.8978 42.9775H33.7794Z" fill="#1F70C1"/>
<path d="M39.9784 39.0051H33.7794V41.0838H39.9784V39.0051Z" fill="#1F70C1"/>
<path d="M46.1849 41.0835H52.6715C52.8557 40.4202 52.9516 39.7199 52.9516 39.0049H46.1849V41.0835Z" fill="#1F70C1"/>
<path d="M51.8981 35.0391H29.6447V37.1177H52.7234C52.5317 36.3806 52.2516 35.6804 51.8978 35.0391H51.8981Z" fill="#1F70C1"/>
<path d="M45.0575 31.0735H29.6447V33.1521H50.3725C48.9867 31.8695 47.1071 31.0735 45.0579 31.0735H45.0575Z" fill="#1F70C1"/>
<path d="M54.4558 37.1177H68.3795L67.6644 35.0391H54.4558V37.1177Z" fill="#1F70C1"/>
<path d="M54.4558 33.1521H67.0087L66.2936 31.0735H54.4558V33.1521Z" fill="#1F70C1"/>
<path d="M77.1877 60.9279V58.8494H87.5297V60.9279H77.1877Z" fill="#1F70C1"/>
<path d="M77.1877 56.9533V54.8748H87.5297V56.9533H77.1877Z" fill="#1F70C1"/>
<path d="M70.9886 44.6579L70.4067 42.9775H64.7896H58.5831V45.0561H64.7896V43.1472L65.446 45.0561H76.5321L77.1877 43.1472V45.0561H83.3942V42.9775H77.1877H71.5713L70.9886 44.6579Z" fill="#1F70C1"/>
<path d="M83.3942 39.0051H72.9422L72.227 41.0836H83.3942V39.0051Z" fill="#1F70C1"/>
<path d="M87.5297 33.1521V31.0735H75.6919L74.9767 33.1521H87.5297Z" fill="#1F70C1"/>
<path d="M70.2742 58.8479L70.9886 60.9041L71.7038 58.8479H70.2742Z" fill="#1F70C1"/>
<path d="M68.8878 54.8748L69.6179 56.9533H72.3602L73.0969 54.8748H68.8878Z" fill="#1F70C1"/>
<path d="M67.4947 50.9089L68.2247 52.9874H73.7533L74.4826 50.9089H67.4947Z" fill="#1F70C1"/>
<path d="M66.8391 49.0219H75.1464L75.8541 46.9434H66.1239L66.8391 49.0219Z" fill="#1F70C1"/>
<path d="M58.5831 41.0836H69.7503L69.0359 39.0051H58.5831V41.0836Z" fill="#1F70C1"/>
<path d="M87.5297 35.0391H74.3129L73.606 37.1177H87.5297V35.0391Z" fill="#1F70C1"/>
<path d="M64.7978 58.8479H54.4558V60.9266H64.7978V58.8479Z" fill="#1F70C1"/>
<path d="M64.7978 54.8748H54.4558V56.9534H64.7978V54.8748Z" fill="#1F70C1"/>
<path d="M64.7895 50.9089H58.5831V52.9876H64.7895V50.9089Z" fill="#1F70C1"/>
<path d="M64.7895 46.9434H58.5831V49.022H64.7895V46.9434Z" fill="#1F70C1"/>
<path d="M83.3942 46.9434H77.1877V49.022H83.3942V46.9434Z" fill="#1F70C1"/>
<path d="M83.3942 50.9089H77.1877V52.9876H83.3942V50.9089Z" fill="#1F70C1"/>
<path d="M91.3995 57.6521C90.9653 57.6521 90.5488 57.8246 90.2418 58.1316C89.9348 58.4387 89.7623 58.8551 89.7623 59.2893C89.7623 59.7235 89.9348 60.14 90.2418 60.447C90.5488 60.754 90.9653 60.9265 91.3995 60.9265C91.8337 60.9265 92.2501 60.754 92.5572 60.447C92.8642 60.14 93.0367 59.7235 93.0367 59.2893C93.0367 58.8551 92.8642 58.4387 92.5572 58.1316C92.2501 57.8246 91.8337 57.6521 91.3995 57.6521ZM91.3995 57.9498C91.7547 57.9498 92.0955 58.0909 92.3467 58.3421C92.5979 58.5933 92.739 58.934 92.739 59.2893C92.739 59.6446 92.5979 59.9853 92.3467 60.2365C92.0955 60.4877 91.7547 60.6288 91.3995 60.6288C91.0442 60.6288 90.7035 60.4877 90.4523 60.2365C90.2011 59.9853 90.0599 59.6446 90.0599 59.2893C90.0599 58.934 90.2011 58.5933 90.4523 58.3421C90.7035 58.0909 91.0442 57.9498 91.3995 57.9498ZM90.7038 58.4553V60.1233H91.1096V59.548H91.3402L91.6501 60.1233H92.0951L91.7213 59.4847C91.9045 59.4129 92.0236 59.2453 92.0236 58.9823C92.0236 58.6786 91.8331 58.4553 91.4594 58.4553H90.7038ZM91.1096 58.7745H91.4114C91.5388 58.7745 91.61 58.8303 91.61 58.9498V59.0698C91.61 59.1893 91.5388 59.2454 91.4114 59.2454H91.1096V58.7745Z" fill="#1F70C1"/>
</g>
<defs>
<clipPath id="clip0_305_615">
<rect width="80" height="29.853" fill="white" transform="translate(13.1111 31.0735)"/>
</clipPath>
</defs>
</svg>
