<svg width="108" height="92" viewBox="0 0 108 92" fill="none" xmlns="http://www.w3.org/2000/svg">
<rect x="1.33337" y="1" width="104.889" height="90" rx="8" fill="white"/>
<rect x="0.833374" y="0.5" width="105.889" height="91" rx="8.5" stroke="black" stroke-opacity="0.24"/>
<path fill-rule="evenodd" clip-rule="evenodd" d="M36.2553 50.8872C36.2553 50.8872 35.1523 50.8103 34.4595 50.6568C33.9977 50.5534 33.228 50.092 33.228 50.092V47.2961C33.7923 47.7575 35.1778 48.2703 35.691 48.2703C36.1784 48.2703 36.7171 48.1678 37.051 47.732C37.3329 47.3731 37.3329 46.7314 37.3329 46.2691V37.5211H40.4117V46.6544C40.4112 49.6302 39.2566 50.8872 36.2553 50.8872ZM48.339 50.7343V49.0404H48.3135C47.8262 50.2724 46.8256 50.9142 45.5171 50.9142C44.5165 50.9142 43.6699 50.7083 43.1316 49.8111C42.5928 48.9635 42.6442 48.0398 42.6442 47.1162V40.9332H45.4661V47.1157C45.4661 47.8864 45.5431 48.6556 46.5437 48.6556C47.1849 48.6556 47.7242 48.2703 47.9806 47.7055C48.1605 47.2697 48.1346 46.7059 48.1346 46.1921V40.9332H50.9564V50.7343H48.339ZM58.6009 50.7343V45.4744C58.6009 44.4738 58.7298 43.0114 57.3184 43.0114C57.071 43.0104 56.828 43.0768 56.6155 43.2034C56.403 43.33 56.2289 43.5121 56.1119 43.7301C55.83 44.2943 55.7785 44.8586 55.7785 45.4744V50.7343H52.9567V40.9332H55.6251V42.6005H55.6756C56.2404 41.3435 57.0615 40.7533 58.4725 40.7533C59.4216 40.7533 60.3197 41.0357 60.8835 41.8308C61.4228 42.5495 61.4228 43.781 61.4228 44.6787V50.7338L58.6009 50.7343ZM63.45 50.7343V40.9332H66.2718V50.7343H63.45ZM74.4046 45.7568C74.4046 46.7574 74.3541 48.887 72.8912 48.887C72.3784 48.887 71.8906 48.5786 71.6087 48.1683C71.2753 47.63 71.3523 46.8088 71.3523 46.1926V45.218C71.3523 44.6537 71.3523 44.0634 71.6342 43.5246C71.8906 43.0633 72.3529 42.755 72.9176 42.755C74.3276 42.7545 74.4046 44.7562 74.4046 45.7568ZM77.3809 45.8332C77.3809 44.6532 77.252 43.4732 76.6367 42.4466C75.995 41.3176 75.0713 40.7533 73.7634 40.7533C72.5063 40.7533 71.7367 41.3176 71.1974 42.3956H71.1719V40.9332H68.5035V55.8652H71.3513V49.6302H71.3768C71.7876 50.5029 72.6858 50.8872 73.6344 50.8872C76.4828 50.8872 77.3809 48.2453 77.3809 45.8332ZM84.7699 44.6277H81.3068C81.4093 43.5246 81.8971 42.6265 83.1541 42.6265C84.3846 42.6265 84.718 43.6016 84.7699 44.6277ZM87.6178 46.321C87.6433 44.9871 87.4119 43.6016 86.6172 42.4981C85.796 41.395 84.3846 40.7793 83.0251 40.7793C79.9978 40.7793 78.2795 43.0883 78.2795 45.9622C78.2795 48.8605 80.1773 50.8872 83.1021 50.8872C86.4113 50.8872 87.5658 48.0139 87.5658 47.5525L84.9239 47.3466C84.9239 48.2448 84.0772 48.8865 83.2046 48.8865C81.9726 48.8865 81.2803 47.9364 81.3068 46.7819L81.3323 46.3206L87.6178 46.321ZM92.1585 46.9883V50.7343H89.3361V40.9332H91.9526V42.7805H92.0041C92.286 41.7284 92.8757 40.6513 94.1077 40.7538L94.57 40.7793V43.6271C92.4149 43.4987 92.1585 45.269 92.1585 46.9883ZM35.5111 55.8652L34.0232 53.3247V55.8652H33.3305V52.0673H34.2796L35.5626 54.2998V52.0673H36.2553V55.8652H35.5111ZM37.6663 55.8652V52.0673H40.3602V52.8115H38.5384V53.5811H39.9753V54.2998H38.5384V55.1465H40.3602V55.8652H37.6663ZM43.1311 52.8379V55.8652H42.2329V52.8379H41.2838V52.0673H44.0802V52.8379H43.1311ZM48.8263 55.8652H47.9542L47.3384 53.3507H47.3124L46.7226 55.8652H45.85L44.8754 52.0673H45.7735L46.3123 54.4538L46.3633 54.6332L46.9795 52.0673H47.8002L48.4415 54.6332H48.467L48.4929 54.4538L49.0572 52.0673H49.7754L48.8263 55.8652ZM53.0081 53.9665C53.0081 54.2229 52.9826 54.5312 52.9057 54.7612C52.8032 55.044 52.6493 55.198 52.3414 55.198C51.7001 55.198 51.6227 54.4538 51.6227 53.966C51.6227 53.7351 51.6737 53.4012 51.7511 53.1703C51.8536 52.9139 52.033 52.7605 52.3414 52.7605C52.5978 52.7605 52.7772 52.8629 52.8802 53.1193C52.9826 53.3762 53.0081 53.7096 53.0081 53.9665ZM53.9573 53.9665C53.9573 53.5042 53.8033 52.9659 53.5464 52.607C53.2386 52.1962 52.8282 52.0167 52.3409 52.0167C51.2119 52.0167 50.6986 52.9659 50.6986 53.9665C50.6986 54.4543 50.827 54.9416 51.0834 55.3259C51.3913 55.7368 51.8017 55.9162 52.3404 55.9162C52.8532 55.9162 53.2896 55.7113 53.5974 55.2754C53.8293 54.9151 53.9573 54.4023 53.9573 53.9665ZM57.3439 53.1968C57.3439 53.3762 57.2669 53.5557 57.113 53.6326C56.96 53.7351 56.7541 53.7096 56.5747 53.7096H56.0869V52.7605H56.5492C56.7286 52.7605 56.985 52.734 57.1395 52.811C57.2669 52.8884 57.3439 53.0679 57.3439 53.1968ZM58.319 55.8652L57.6003 54.1974C58.0111 54.0434 58.2675 53.6326 58.2675 53.2223C58.2675 52.8379 58.0881 52.4781 57.7797 52.2731C57.4978 52.0673 57.139 52.0673 56.8056 52.0673H55.2147V55.8652H56.0864V54.3768H56.7537L57.3184 55.8652H58.319ZM61.6802 55.8652L60.936 54.2229L60.3967 54.9921V55.8652H59.5245V52.0673H60.3967V53.864L61.6032 52.0673H62.4494L61.5257 53.4277L62.6808 55.8652H61.6802ZM66.0414 55.6088C65.7331 55.8392 65.3227 55.9162 64.9384 55.9162C64.2197 55.9162 63.5779 55.6088 63.3985 54.8646L64.2197 54.6852C64.3221 55.0695 64.6305 55.2235 65.0144 55.2235C65.2708 55.2235 65.6046 55.121 65.6046 54.8127C65.6046 54.5043 65.1688 54.4273 64.9384 54.3768C64.2711 54.2479 63.6044 54.0434 63.6044 53.2223C63.6044 52.8634 63.7323 52.5551 64.0142 52.3241C64.2971 52.0937 64.6055 52.0167 64.9643 52.0167C65.6316 52.0167 66.1699 52.2477 66.4263 52.9139L65.6566 53.1703C65.5541 52.8379 65.3482 52.709 64.9893 52.709C64.7584 52.709 64.4765 52.786 64.4765 53.0679C64.4765 53.3507 64.8099 53.4012 65.0148 53.4532C65.3232 53.5037 65.759 53.5811 66.0154 53.7615C66.3238 53.9665 66.5283 54.2743 66.5283 54.6587C66.5283 55.044 66.3488 55.3774 66.0414 55.6088ZM64.9384 37.2647C65.1541 37.2641 65.3678 37.3062 65.5673 37.3885C65.7667 37.4708 65.9479 37.5917 66.1004 37.7443C66.253 37.8969 66.3738 38.0781 66.4561 38.2776C66.5383 38.477 66.5804 38.6908 66.5797 38.9065C66.5797 39.8046 65.8355 40.5228 64.9384 40.5228C64.7258 40.5238 64.5152 40.4827 64.3186 40.4018C64.122 40.3209 63.9434 40.2019 63.7931 40.0516C63.6428 39.9013 63.5237 39.7228 63.4428 39.5262C63.3618 39.3297 63.3206 39.1191 63.3215 38.9065C63.3215 37.9829 64.0402 37.2647 64.9384 37.2647ZM26.9421 40.0865H31.2778V37.9059H23.0686C24.5078 38.3311 25.832 39.0766 26.9421 40.0865ZM17.0135 37.9059H8.77783V40.0865H13.1391C14.2532 39.0818 15.5766 38.337 17.0135 37.9059ZM12.5238 40.7278H8.77783V42.8829H11.0354C11.4208 42.0877 11.934 41.3695 12.5238 40.7278ZM29.9694 46.7824C29.9694 47.3736 29.8924 47.9634 29.7899 48.5017H31.2778V46.3465H29.9439C29.9694 46.5005 29.9694 46.6544 29.9694 46.7824ZM29.0457 42.8829H31.2778V40.7278H27.5833C28.1743 41.3702 28.6671 42.0964 29.0457 42.8829ZM10.7535 43.5242H8.77783V45.7048H10.1893C10.2917 44.9611 10.4712 44.2169 10.7535 43.5242ZM29.8924 45.7053H31.2778V43.5246H29.3281C29.6105 44.2169 29.7899 44.9611 29.8924 45.7053ZM10.1378 46.7824V46.3465H8.77783V48.5017H10.2912C10.1873 47.9345 10.1359 47.359 10.1378 46.7824ZM30.0723 35.6228H9.98384C9.82545 35.6226 9.66858 35.6537 9.52221 35.7142C9.37583 35.7747 9.24283 35.8635 9.13081 35.9754C9.01879 36.0874 8.92995 36.2204 8.86939 36.3667C8.80882 36.5131 8.77771 36.6699 8.77783 36.8283V37.2647H31.2778V36.8283C31.278 36.67 31.247 36.5131 31.1865 36.3668C31.1259 36.2204 31.0371 36.0875 30.9252 35.9755C30.8132 35.8635 30.6802 35.7747 30.5339 35.7142C30.3875 35.6537 30.2307 35.6226 30.0723 35.6228ZM10.4457 49.1434H8.77783V51.375H11.3948C10.9844 50.6823 10.6766 49.9131 10.4457 49.1434ZM28.6869 51.375H31.2778V49.1434H29.6355C29.4311 49.9131 29.0972 50.6823 28.6869 51.375ZM11.8056 51.9913H8.77783V54.1204H13.9093C13.0881 53.5302 12.3954 52.8115 11.8056 51.9913ZM26.1729 54.1204H31.2783V51.9913H28.2765C27.7118 52.8115 26.9935 53.5302 26.1729 54.1204Z" fill="#236AB3"/>
<path fill-rule="evenodd" clip-rule="evenodd" d="M25.7875 54.7357H25.0178L24.9923 54.7102L26.4033 53.3243C26.4429 53.2744 26.4685 53.2149 26.4776 53.1518C26.4866 53.0888 26.4788 53.0244 26.4548 52.9654L26.4293 52.9399L27.0195 52.4776C27.122 52.4006 27.1735 52.2727 27.148 52.1702C27.1225 52.0413 27.0195 51.9393 26.8916 51.9393L26.6092 51.8878L26.4038 51.8373H26.4297L26.9171 51.4015L27.4044 50.9392L27.8917 50.5034C27.9941 50.4264 28.0201 50.2724 27.9686 50.1445C27.8917 50.0156 27.7637 49.9641 27.6353 49.9641L27.5328 49.9906L27.5843 49.9136L28.328 49.0409C28.405 48.9385 28.4305 48.7845 28.354 48.6821C28.3025 48.6306 28.277 48.6051 28.2255 48.5796L28.5849 48.0149C28.6618 47.9124 28.6618 47.7584 28.5594 47.6305C28.5108 47.5793 28.4461 47.5462 28.376 47.5368C28.306 47.5275 28.2349 47.5424 28.1745 47.579L27.6612 47.8874L27.1225 48.1693L26.6092 48.4776L26.5837 48.5031C26.5837 48.4007 26.6092 48.3237 26.6092 48.3237L26.6347 47.9648V47.5795C26.6606 47.4506 26.5837 47.3231 26.4552 47.2711C26.3921 47.2482 26.3233 47.2459 26.2588 47.2644C26.1942 47.283 26.1372 47.3216 26.0959 47.3746L25.916 47.605C25.865 47.5795 25.8135 47.528 25.762 47.528C25.7383 47.5155 25.7119 47.5089 25.6851 47.5089C25.6582 47.5089 25.6318 47.5155 25.6081 47.528L26.1469 46.7078C26.1984 46.5789 26.1984 46.4505 26.1214 46.348C26.0949 46.3108 26.0604 46.28 26.0204 46.2578C25.9805 46.2357 25.9361 46.2228 25.8905 46.22L26.3778 45.2704C26.4293 45.168 26.4293 45.014 26.3268 44.937C26.2876 44.8891 26.2336 44.8555 26.1733 44.8416C26.1129 44.8277 26.0497 44.8342 25.9934 44.8601L25.5571 45.04L25.1208 45.2454L24.7359 45.4248L24.7614 45.04L24.9668 44.3728C24.9899 44.3097 24.9924 44.241 24.974 44.1765C24.9556 44.1119 24.9172 44.0548 24.8644 44.0134C24.8083 43.9848 24.7472 43.9675 24.6845 43.9624L24.9409 42.2436C24.9409 42.0897 24.8639 41.9617 24.7355 41.9102C24.5815 41.8588 24.4531 41.9102 24.3761 42.0382L24.0168 42.6025C23.9653 42.5255 23.8628 42.4485 23.7604 42.4485C23.6319 42.4485 23.5035 42.5255 23.4525 42.628L22.9137 43.9364C22.8882 43.9364 22.8627 43.911 22.8627 43.911C22.7343 43.911 22.6063 43.9879 22.5548 44.0904L22.3499 44.5522C22.3078 44.5374 22.263 44.5321 22.2186 44.5366C22.1742 44.5411 22.1313 44.5553 22.093 44.5782L22.0415 44.6292L21.9131 43.3462C21.9131 43.2437 21.8361 43.1413 21.7337 43.0898C21.6312 43.0643 21.5028 43.0643 21.4258 43.1413L21.3488 42.9873L21.0924 42.5255L20.8355 42.0637L20.5791 41.5759C20.5281 41.4734 20.3992 41.422 20.2712 41.422C20.1428 41.4475 20.0403 41.5244 20.0148 41.6529L19.9124 42.0122C19.9124 42.0122 19.8869 42.1662 19.8614 42.2686H19.8359C19.8614 42.2686 19.2716 40.9347 19.2716 40.9347C19.2463 40.8739 19.2035 40.8219 19.1487 40.7854C19.094 40.7488 19.0296 40.7293 18.9637 40.7292C18.9127 40.7292 18.8868 40.7547 18.8353 40.7802L18.5019 39.9595C18.4766 39.8987 18.4339 39.8468 18.3791 39.8102C18.3243 39.7736 18.2599 39.7541 18.194 39.7541C18.0916 39.7541 17.9631 39.8311 17.9121 39.9595L17.8097 40.2414L17.6557 39.7027C17.6043 39.6002 17.5018 39.4973 17.3734 39.4973C17.2709 39.4973 17.1939 39.5227 17.1425 39.5742L16.886 39.1379C16.886 39.1124 16.5012 38.4712 16.5012 38.4712C16.4242 38.3687 16.2703 38.3172 16.1419 38.3427C16.0734 38.3646 16.0151 38.4102 15.9774 38.4714C15.9398 38.5325 15.9252 38.6051 15.9364 38.6761L16.1673 40.3949L16.0904 40.3694C15.9879 40.2924 15.834 40.3184 15.757 40.3949C15.6545 40.4719 15.6286 40.6003 15.6545 40.7283L16.1933 42.3446L15.6545 42.0627C15.5941 42.0264 15.5231 42.0116 15.4532 42.0209C15.3833 42.0301 15.3186 42.0629 15.2697 42.1137C15.228 42.1682 15.2034 42.2338 15.1988 42.3023C15.1943 42.3708 15.2101 42.439 15.2442 42.4986L15.783 43.2938C15.6805 43.2938 15.5776 43.3197 15.5266 43.3967C15.4496 43.4992 15.4241 43.6271 15.5011 43.7556L16.0399 44.7052L15.681 44.4483C15.5781 44.3458 15.4246 44.3458 15.2962 44.4483C15.1937 44.5253 15.1677 44.6792 15.2192 44.8076L16.2453 47.0402L15.9889 46.8863C15.8864 46.8093 15.7325 46.8348 15.6295 46.9118C15.5266 46.9888 15.5011 47.1427 15.5271 47.2452L15.8604 48.1433L14.9368 47.553C14.8941 47.5182 14.8419 47.497 14.7869 47.4923C14.732 47.4876 14.677 47.4995 14.6289 47.5266C14.5265 47.6035 14.449 47.706 14.475 47.8349V47.9639L14.3211 47.8349L13.3974 46.7064C13.3536 46.6492 13.2922 46.608 13.2226 46.5893C13.153 46.5706 13.0792 46.5754 13.0126 46.6029C12.9655 46.627 12.9261 46.6638 12.8989 46.7091C12.8717 46.7544 12.8577 46.8065 12.8586 46.8594L12.1149 46.1921C12.0125 46.0897 11.8585 46.0897 11.7301 46.1666C11.6276 46.2436 11.5761 46.3975 11.6276 46.5255L11.91 47.3731L11.833 47.4491C11.7306 47.5526 11.7306 47.68 11.782 47.809L12.3723 48.9375C12.3723 48.9375 12.5007 49.117 12.6027 49.2964H12.2438C12.1154 49.2964 12.0129 49.3734 11.9615 49.4768C11.9342 49.5292 11.9222 49.5883 11.9268 49.6472C11.9313 49.7061 11.9524 49.7626 11.9874 49.8102L12.8081 50.8617C12.7556 50.863 12.7048 50.8811 12.6633 50.9134C12.6218 50.9457 12.5918 50.9905 12.5777 51.0412C12.5262 51.1436 12.5517 51.2721 12.6287 51.3746L14.0396 52.811H13.9372C13.8087 52.7855 13.6808 52.8374 13.6293 52.9649C13.6018 53.0173 13.5896 53.0763 13.5941 53.1353C13.5986 53.1942 13.6196 53.2507 13.6548 53.2983L14.0141 53.7341C13.9886 53.7606 13.9631 53.7856 13.9631 53.8366C13.9117 53.94 13.9631 54.093 14.0401 54.17L14.7588 54.7602H8.77783V55.197C8.77783 55.8378 9.31662 56.3771 9.98384 56.3771H30.0723C30.7395 56.3771 31.2783 55.8378 31.2783 55.197V54.7602H25.7875V54.7357ZM95.5711 39.3683C95.5711 38.5472 96.1864 37.9314 96.9816 37.9314C97.7772 37.9314 98.418 38.5472 98.418 39.3683C98.418 40.215 97.7772 40.8562 96.9816 40.8562C96.1864 40.8562 95.5711 40.215 95.5711 39.3683ZM96.9816 41.1386C97.9317 41.1386 98.7778 40.3944 98.7778 39.3683C98.7778 38.3677 97.9312 37.6235 96.9816 37.6235C96.0074 37.6235 95.1863 38.3677 95.1863 39.3683C95.1858 40.3944 96.0069 41.1386 96.9816 41.1386ZM96.6222 39.5223H96.9811L97.4939 40.3944H97.8537L97.2635 39.4963C97.5709 39.4708 97.8018 39.3169 97.8018 38.9575C97.8018 38.5467 97.5454 38.3673 97.084 38.3673H96.3134V40.3939H96.6217L96.6222 39.5223ZM96.6222 39.2654V38.6241H97.033C97.238 38.6241 97.4689 38.6751 97.4689 38.932C97.4689 39.2399 97.238 39.2654 96.9811 39.2654H96.6222Z" fill="#236AB3"/>
</svg>
