<svg width="33" height="32" viewBox="0 0 33 32" fill="none" xmlns="http://www.w3.org/2000/svg">
<path d="M16.3335 0C7.4967 0 0.333496 7.1632 0.333496 16C0.333496 24.8368 7.4967 32 16.3335 32C25.1703 32 32.3335 24.8368 32.3335 16C32.3335 7.1632 25.1703 0 16.3335 0Z" fill="#434343"/>
<path d="M18.499 20.2408H22.6398L23.2902 16.0344H18.499V13.7352C18.499 11.988 19.0702 10.4384 20.7046 10.4384H23.331V6.76798C22.8694 6.70558 21.8934 6.56958 20.0494 6.56958C16.1982 6.56958 13.9406 8.60318 13.9406 13.2368V16.0352H9.98145V20.2416H13.9398V31.8032C14.7238 31.92 15.5182 32 16.3334 32C17.0702 32 17.7894 31.9328 18.499 31.8368V20.2408Z" fill="white"/>
</svg>
