<svg width="48" height="48" viewBox="0 0 48 48" fill="none" xmlns="http://www.w3.org/2000/svg">
<rect width="48" height="48" rx="24" fill="#FDD3D0"/>
<path d="M24 26.6667C23.6222 26.6667 23.3056 26.5389 23.05 26.2834C22.7944 26.0278 22.6667 25.7111 22.6667 25.3334C22.6667 24.9556 22.7944 24.6389 23.05 24.3834C23.3056 24.1278 23.6222 24 24 24C24.3778 24 24.6944 24.1278 24.95 24.3834C25.2056 24.6389 25.3333 24.9556 25.3333 25.3334C25.3333 25.7111 25.2056 26.0278 24.95 26.2834C24.6944 26.5389 24.3778 26.6667 24 26.6667ZM18.6667 26.6667C18.2889 26.6667 17.9722 26.5389 17.7167 26.2834C17.4611 26.0278 17.3333 25.7111 17.3333 25.3334C17.3333 24.9556 17.4611 24.6389 17.7167 24.3834C17.9722 24.1278 18.2889 24 18.6667 24C19.0444 24 19.3611 24.1278 19.6167 24.3834C19.8722 24.6389 20 24.9556 20 25.3334C20 25.7111 19.8722 26.0278 19.6167 26.2834C19.3611 26.5389 19.0444 26.6667 18.6667 26.6667ZM29.3333 26.6667C28.9556 26.6667 28.6389 26.5389 28.3833 26.2834C28.1278 26.0278 28 25.7111 28 25.3334C28 24.9556 28.1278 24.6389 28.3833 24.3834C28.6389 24.1278 28.9556 24 29.3333 24C29.7111 24 30.0278 24.1278 30.2833 24.3834C30.5389 24.6389 30.6667 24.9556 30.6667 25.3334C30.6667 25.7111 30.5389 26.0278 30.2833 26.2834C30.0278 26.5389 29.7111 26.6667 29.3333 26.6667ZM24 32C23.6222 32 23.3056 31.8722 23.05 31.6167C22.7944 31.3611 22.6667 31.0445 22.6667 30.6667C22.6667 30.2889 22.7944 29.9722 23.05 29.7167C23.3056 29.4611 23.6222 29.3334 24 29.3334C24.3778 29.3334 24.6944 29.4611 24.95 29.7167C25.2056 29.9722 25.3333 30.2889 25.3333 30.6667C25.3333 31.0445 25.2056 31.3611 24.95 31.6167C24.6944 31.8722 24.3778 32 24 32ZM18.6667 32C18.2889 32 17.9722 31.8722 17.7167 31.6167C17.4611 31.3611 17.3333 31.0445 17.3333 30.6667C17.3333 30.2889 17.4611 29.9722 17.7167 29.7167C17.9722 29.4611 18.2889 29.3334 18.6667 29.3334C19.0444 29.3334 19.3611 29.4611 19.6167 29.7167C19.8722 29.9722 20 30.2889 20 30.6667C20 31.0445 19.8722 31.3611 19.6167 31.6167C19.3611 31.8722 19.0444 32 18.6667 32ZM29.3333 32C28.9556 32 28.6389 31.8722 28.3833 31.6167C28.1278 31.3611 28 31.0445 28 30.6667C28 30.2889 28.1278 29.9722 28.3833 29.7167C28.6389 29.4611 28.9556 29.3334 29.3333 29.3334C29.7111 29.3334 30.0278 29.4611 30.2833 29.7167C30.5389 29.9722 30.6667 30.2889 30.6667 30.6667C30.6667 31.0445 30.5389 31.3611 30.2833 31.6167C30.0278 31.8722 29.7111 32 29.3333 32ZM14.6667 37.3334C13.9333 37.3334 13.3056 37.0722 12.7833 36.55C12.2611 36.0278 12 35.4 12 34.6667V16C12 15.2667 12.2611 14.6389 12.7833 14.1167C13.3056 13.5945 13.9333 13.3334 14.6667 13.3334H16V10.6667H18.6667V13.3334H29.3333V10.6667H32V13.3334H33.3333C34.0667 13.3334 34.6944 13.5945 35.2167 14.1167C35.7389 14.6389 36 15.2667 36 16V34.6667C36 35.4 35.7389 36.0278 35.2167 36.55C34.6944 37.0722 34.0667 37.3334 33.3333 37.3334H14.6667ZM14.6667 34.6667H33.3333V21.3334H14.6667V34.6667Z" fill="#A21C21"/>
</svg>
